<?xml version="1.0" standalone="no"?><!DOCTYPE svg PUBLIC "-//W3C//DTD SVG 1.1//EN" "http://www.w3.org/Graphics/SVG/1.1/DTD/svg11.dtd"><svg t="1768193783231" class="icon" viewBox="0 0 1041 1024" version="1.1" xmlns="http://www.w3.org/2000/svg" p-id="12672" xmlns:xlink="http://www.w3.org/1999/xlink" width="203.3203125" height="200"><path d="M960.334585 146.606505l-36.862707 70.0607-36.934564-70.0607-67.330128-38.245956 67.330128-38.299849 36.934564-70.0607 36.862707 70.0607 67.41995 38.227992-67.41995 38.317813z m-255.919161 113.534262l39.341778-22.383495 21.557138-40.832813 21.557138 40.814848 39.305849 22.40146-39.323813 22.347567-21.557138 40.868741-21.557139-40.814848-39.341777-22.437389 0.017964 0.035929zM338.914143 967.592155a42.234027 42.234027 0 1 0 84.432126 0V325.746325a42.234027 42.234027 0 1 0-84.432126 0V967.592155z m163.474966-118.85169a42.234027 42.234027 0 1 0 84.432125 0v-397.369917a42.234027 42.234027 0 1 0-84.432125 0v397.369917z m-485.035613-125.749973a41.53342 41.53342 0 0 0 42.234027 42.844812 41.53342 41.53342 0 0 0 42.216063-42.79092v-158.983895a41.53342 41.53342 0 0 0-42.251991-42.808884 41.53342 41.53342 0 0 0-42.198099 42.808884v158.983895-0.053892z m643.013509 0a42.234027 42.234027 0 1 0 84.432125 0v-158.930003a42.234027 42.234027 0 1 0-84.432125 0v158.983895-0.053892zM217.619312 891.603242a41.53342 41.53342 0 0 1-42.180134-42.79092v-397.369916a42.234027 42.234027 0 1 1 84.432125 0v397.316024a41.53342 41.53342 0 0 1-42.216063 42.808883l-0.035928 0.035929z" p-id="12673"></path></svg>